<svg width="70" height="25" viewBox="0 0 70 25" fill="none" xmlns="http://www.w3.org/2000/svg">
<path d="M1.82 6.02H4.4L10.3 15.28H10.12V6.02H12.48V19H10.08L3.8 9.18H4.18V19H1.82V6.02ZM20.1159 19.28C19.2893 19.28 18.5326 19.0667 17.8459 18.64C17.1593 18.2133 16.6093 17.6167 16.1959 16.85C15.7826 16.0767 15.5759 15.1733 15.5759 14.14C15.5759 13.0733 15.7793 12.1567 16.1859 11.39C16.5993 10.6233 17.1493 10.0367 17.8359 9.63C18.5226 9.22333 19.2826 9.02 20.1159 9.02C20.8893 9.02 21.5559 9.17667 22.1159 9.49C22.6826 9.79667 23.1359 10.2167 23.4759 10.75C23.8226 11.2767 24.0559 11.8733 24.1759 12.54C24.2959 13.2067 24.3026 13.8933 24.1959 14.6H17.4559V13.32H22.5259L22.0659 13.62C22.0859 13.3067 22.0693 12.99 22.0159 12.67C21.9693 12.35 21.8759 12.0567 21.7359 11.79C21.5959 11.5233 21.3959 11.31 21.1359 11.15C20.8826 10.9833 20.5559 10.9 20.1559 10.9C19.6759 10.9 19.2693 11.02 18.9359 11.26C18.6026 11.5 18.3493 11.8267 18.1759 12.24C18.0026 12.6533 17.9159 13.12 17.9159 13.64V14.58C17.9159 15.1267 17.9959 15.61 18.1559 16.03C18.3226 16.45 18.5659 16.78 18.8859 17.02C19.2126 17.26 19.6226 17.38 20.1159 17.38C20.5759 17.38 20.9626 17.2733 21.2759 17.06C21.5893 16.8467 21.7893 16.5267 21.8759 16.1H24.2559C24.1559 16.7267 23.9193 17.28 23.5459 17.76C23.1793 18.2333 22.7026 18.6067 22.1159 18.88C21.5293 19.1467 20.8626 19.28 20.1159 19.28ZM25.8614 19L29.6414 14.16L25.8614 9.26H28.7614L31.1414 12.38L33.4014 9.26H36.2814L32.5214 14.16L36.2814 19H33.4014L30.9814 15.88L28.7614 19H25.8614ZM42.0556 19.28C41.4823 19.28 40.9556 19.1733 40.4756 18.96C40.0023 18.7467 39.6223 18.42 39.3356 17.98C39.0556 17.54 38.9156 16.98 38.9156 16.3V6.72H41.2756V16.22C41.2756 17.02 41.6556 17.42 42.4156 17.42C42.649 17.42 42.8823 17.3933 43.1156 17.34C43.349 17.2867 43.6156 17.2067 43.9156 17.1L44.2556 18.76C43.8823 18.9067 43.519 19.03 43.1656 19.13C42.8123 19.23 42.4423 19.28 42.0556 19.28ZM37.5556 10.86V9.3H43.9156V10.86H37.5556Z" fill="#A06056"/>
<path fill-rule="evenodd" clip-rule="evenodd" d="M62.7071 4.79289C62.3166 4.40237 61.6834 4.40237 61.2929 4.79289C60.9024 5.18342 60.9024 5.81658 61.2929 6.20711L67.5858 12.5L61.2929 18.7929C60.9024 19.1834 60.9024 19.8166 61.2929 20.2071C61.6834 20.5976 62.3166 20.5976 62.7071 20.2071L69.7071 13.2071C70.0976 12.8166 70.0976 12.1834 69.7071 11.7929L62.7071 4.79289Z" fill="#A06056"/>
</svg>
